<?xml version="1.0" encoding="utf-8"?>
<!-- Generator: Adobe Illustrator 23.0.5, SVG Export Plug-In . SVG Version: 6.00 Build 0)  -->
<svg version="1.1" xmlns="http://www.w3.org/2000/svg" xmlns:xlink="http://www.w3.org/1999/xlink" x="0px" y="0px"
	 viewBox="0 0 800 800" style="enable-background:new 0 0 800 800;" xml:space="preserve">
<style type="text/css">
	.st0{fill:#93C999;}
	.st1{fill:#F2D57E;}
	.st2{fill:#F0B8BC;}
	.st3{fill:#1B3D43;}
	.st4{fill:#F5F5F5;}
	.st5{fill:#4FB3C2;}
	.st6{fill:#9FD5E1;}
</style>
<g id="Capa_2">
	<circle class="st0" cx="391" cy="428.8" r="196.6"/>
	
</g>
<g id="Capa_1">
	<g>
		<path class="st1" d="M425.9,291.5l78.9-45.4c36.9-20.4,86.9-8.7,107.3,28.2l-3.5,1.7l-164.5,90.8L425.9,291.5z"/>
		<path class="st2" d="M545.4,310.9c0,0-70.4,39.9-108.7,26.1l7.3,29.9L545.4,310.9z"/>
		<path class="st3" d="M298,598.9L298,598.9c105.6-25.6,170.4-132,144.8-237.7l-16.9-69.7l0,0c-105.6,25.6-170.4,132-144.8,237.7
			L298,598.9z"/>
		<circle class="st2" cx="393.9" cy="342.2" r="25.2"/>
		<circle class="st3" cx="393.9" cy="342.2" r="13.8"/>
		<path class="st3" d="M154.1,614.8c0,0,136.3-154.5,180.1-124.3C408.3,541.6,275.2,661.3,154.1,614.8z"/>
		<circle class="st4" cx="381.7" cy="337" r="7.9"/>
	</g>
	<path class="st3" d="M504.8,246.1L504.8,246.1c8.6,17.8,27,29,46.7,27.9c17.2-1,47.5-16,70.8,8.5
		C622.2,282.5,592.5,204.5,504.8,246.1z"/>
	<path class="st5" d="M447.1,279.3l-21.3,12.2l6.2,25.7C432.1,317.2,460.6,300.6,447.1,279.3z"/>
</g>
<g id="Capa_5">
	<path class="st6" d="M99,504.4c0,0,191.3-76.5,216.8-29.9C359,553.5,186.2,600.4,99,504.4z"/>

<animateTransform 
	attributeName="transform"
      attributeType="XML"
      type="rotate"
      from="1 550 550"
      to="-1 550 500"
      dur="1s"
      begin="0.7s"
      repeatCount="indefinite"
      fill="freeze"
	/>
</g>
<g id="Capa_4">
	<path class="st5" d="M109.9,435.2c0,0,206-3.5,213.2,49.2C335.4,573.6,157.2,556,109.9,435.2z"/>

<animateTransform 
	attributeName="transform"
      attributeType="XML"
      type="rotate"
      from="1 550 550"
      to="-1 550 500"
      dur="1s"
      begin="0.5s"
      repeatCount="indefinite"
      fill="freeze" 
	/>

</g>
<g id="Capa_3">
	<path class="st3" d="M135.3,358.6c0,0,213.2,56.6,192,123.3C300,567.7,140,488.2,135.3,358.6z"/>
	
	<animateTransform 
	attributeName="transform"
      attributeType="XML"
      type="rotate"
      from="1 550 550"
      to="-1 550 500"
      dur="1s"
      begin="0s"
      repeatCount="indefinite"
      fill="freeze" 
	/>
</g>
</svg>
